<svg width="1360" height="588" viewBox="0 0 1360 588" fill="none" xmlns="http://www.w3.org/2000/svg">
<path d="M1296.31 441C1296.31 519.386 1235.08 582.931 1159.56 582.931C1108.97 582.931 1064.8 554.419 1041.14 512.032C1028.93 517.78 1015.76 521.719 1001.95 523.521C1003.2 560.404 962.067 588 847.346 588C798.189 588 755.089 561.08 730.987 520.668C712.2 535.107 688.944 543.647 663.765 543.647C620.196 543.647 582.385 518.077 563.521 480.618C549.977 542.174 498.236 588 436.474 588C401.38 588 369.522 573.205 346.068 549.135C327.134 568.79 295.539 581.664 259.761 581.664C218.894 581.664 183.485 564.867 166.167 540.354C156.692 542.51 146.848 543.647 136.749 543.647C61.2248 543.647 0 480.102 0 401.716C0 374.185 7.55227 348.485 20.6239 326.726C11.4494 309.059 6.24426 288.853 6.24426 267.388C6.24426 245.118 11.847 224.204 21.6723 206.074C18.9373 194.879 17.4839 183.155 17.4839 171.078C17.4839 92.6912 78.7087 29.1466 154.233 29.1466C199.02 29.1466 238.778 51.4924 263.721 86.0278C288.698 58.0579 324.399 40.5517 364.04 40.5517C394.494 40.5517 422.623 50.8838 445.35 68.3548C468.848 48.5908 498.785 36.75 531.387 36.75C584.552 36.75 630.632 68.2394 653.255 114.229C665.67 49.1041 721.01 0 787.401 0C842.671 0 890.282 34.031 911.845 83.0054C929.424 74.4678 949.042 69.6983 969.734 69.6983C1027.08 69.6983 1076.17 106.33 1096.49 158.276C1116.81 106.33 1165.91 69.6983 1223.25 69.6983C1298.78 69.6983 1360 133.243 1360 211.629C1360 275.841 1318.92 330.094 1262.54 347.615C1283.57 372.573 1296.31 405.242 1296.31 441Z" fill="#EFEFEF"/>
</svg>
