<svg width="111" height="42" viewBox="0 0 111 42" fill="none" xmlns="http://www.w3.org/2000/svg">
<path d="M105.487 33.3989L98.2422 35.3978L89.5406 3.86487L96.9228 1.86597L105.487 33.3989Z" fill="#181F32"/>
<path d="M105.319 28.5978L110.863 27.0969L104.804 4.7222L99.2612 6.22308L105.319 28.5978Z" fill="#181F32"/>
<path d="M29.809 17.5402H32.5085V27.8493H36.0251V17.5402H38.7247V14.4705H29.809V17.5402Z" fill="#181F32"/>
<path d="M41.3291 14.986C41.3291 16.6782 41.3132 18.1272 41.2789 19.2853C41.2445 20.4434 41.1943 21.4005 41.1334 22.1567C41.0949 22.7244 41.0181 23.2889 40.9034 23.8462C40.8581 24.1038 40.7687 24.3516 40.639 24.5786C40.6109 24.6268 40.5709 24.6669 40.5227 24.695C40.3723 24.7193 40.2202 24.7308 40.0679 24.7294H39.9568C39.9116 24.7256 39.8666 24.7194 39.822 24.7109L39.2059 24.5866V27.7594L39.6078 27.8493C39.7321 27.8758 39.9119 27.9022 40.1604 27.9287C40.409 27.9551 40.6126 27.9657 40.7897 27.9657C41.254 27.9723 41.7166 27.909 42.162 27.7779C42.6016 27.6411 42.9956 27.3869 43.3016 27.0429C43.6345 26.6473 43.8845 26.1887 44.0366 25.6944C44.2413 25.0411 44.3795 24.3687 44.4491 23.6876C44.5416 22.8944 44.6104 21.9558 44.6527 20.8611C44.687 19.904 44.7082 18.7935 44.7108 17.5508H45.8822V27.8626H49.4014V14.4705H41.3291V14.986Z" fill="#181F32"/>
<path d="M54.9169 22.4872H59.0681V19.4201H54.9169V17.5402H59.3272V14.4705H51.3977V27.8493H59.5017V24.7822H54.9169V22.4872Z" fill="#181F32"/>
<path d="M60.874 17.5402H63.5735V27.8493H67.0901V17.5402H69.7897V14.4705H60.874V17.5402Z" fill="#181F32"/>
<path d="M77.0423 14.4705L74.8821 20.1261V14.4705H71.4845V27.8493H75.0328L77.1956 22.2069V27.8493H80.5932V14.4705H77.0423Z" fill="#181F32"/>
<path d="M82.5922 14.4701H86.1114V18.222L88.499 14.4701H91.1351L87.3091 0.340332L78.0576 2.84689L79.8027 9.2825L82.5922 19.5916V14.4701Z" fill="#181F32"/>
<path d="M92.7348 20.3717L91.5185 15.8821L88.7158 20.3003L92.711 27.849H88.7396L86.4551 23.296L86.1114 23.8222V27.849H84.8264L88.6524 41.9815L97.9012 39.4776L92.7348 20.3717Z" fill="#181F32"/>
<path d="M18.2757 22.2201L23.7965 6.46425L22.0885 0.0180664L12.9665 2.1571L18.2757 22.2201Z" fill="#181F32"/>
<path d="M23.3443 41.3499L32.2283 38.8935L29.304 27.8335L21.7314 27.8361L20.6949 31.3395L23.3443 41.3499Z" fill="#181F32"/>
<path d="M13.7385 39.8769L21.0122 37.9864L19.6162 32.6032L14.6348 32.6058L17.4983 24.4463L12.7945 6.32397L5.40179 8.28057L13.7385 39.8769Z" fill="#181F32"/>
<path d="M23.0905 23.2646H28.0931L25.5759 13.7593L23.0905 23.2646Z" fill="#181F32"/>
<path d="M5.55383 13.2208L0.0022583 14.6907L5.93532 37.0989L11.4869 35.629L5.55383 13.2208Z" fill="#181F32"/>
<path d="M43.6956 37.331H40.8691L40.3403 38.6345H38.8967L41.6095 32.5532H43.0029L45.7262 38.6345H44.2456L43.6956 37.331ZM43.2514 36.2602L42.2863 33.9281L41.3213 36.2602H43.2514Z" fill="#181F32"/>
<path d="M56.4055 37.2991C56.4141 37.49 56.3749 37.68 56.2913 37.8518C56.2077 38.0236 56.0824 38.1717 55.9269 38.2827C55.499 38.5425 55.0012 38.6635 54.5018 38.6291H52.0032V33.9491H54.3828C54.8619 33.9228 55.3386 34.0328 55.7577 34.2664C55.9126 34.357 56.0404 34.4875 56.1278 34.6441C56.2152 34.8008 56.2591 34.9781 56.2548 35.1575C56.2586 35.3754 56.1958 35.5894 56.075 35.7709C55.9481 35.9542 55.7722 36.098 55.5674 36.186C55.8151 36.2444 56.0346 36.3877 56.1877 36.591C56.3408 36.7944 56.4179 37.0449 56.4055 37.2991ZM53.2485 35.8714H54.2744C54.7503 35.8714 54.9883 35.7048 54.9883 35.3663C54.9883 35.0279 54.7503 34.8719 54.2744 34.8719H53.2485V35.8714ZM55.1364 37.1934C55.1426 37.1184 55.1299 37.043 55.0994 36.9741C55.0689 36.9053 55.0216 36.8452 54.9619 36.7994C54.7967 36.7022 54.6057 36.6579 54.4145 36.6725H53.2485V37.7063H54.3881C54.8878 37.7116 55.1364 37.5424 55.1364 37.1987V37.1934Z" fill="#181F32"/>
<path d="M60.9029 34.3908C61.2925 34.7433 61.4873 35.2642 61.4873 35.9534V38.6239H60.2181V38.0422C59.9537 38.4758 59.4857 38.6953 58.7903 38.6953C58.4686 38.7021 58.1492 38.639 57.8543 38.5102C57.6089 38.4049 57.3994 38.2303 57.2515 38.0078C57.1115 37.7895 57.0389 37.5348 57.0426 37.2754C57.0351 37.0776 57.0757 36.881 57.1609 36.7023C57.2461 36.5236 57.3734 36.3683 57.5318 36.2496C57.8596 36.001 58.3673 35.8741 59.0521 35.8741H60.1309C60.139 35.748 60.1195 35.6217 60.0739 35.5039C60.0282 35.3861 59.9574 35.2796 59.8665 35.1919C59.6348 35.0167 59.3471 34.9321 59.0574 34.954C58.8077 34.953 58.5595 34.9923 58.3223 35.0703C58.1008 35.1392 57.8932 35.2466 57.7089 35.3876L57.2198 34.441C57.4995 34.2503 57.8098 34.109 58.1373 34.0233C58.4962 33.9234 58.8672 33.8736 59.2398 33.8752C59.8388 33.8365 60.4309 34.0201 60.9029 34.3908ZM59.7554 37.6297C59.9354 37.5226 60.0714 37.3548 60.1388 37.1565V36.6779H59.2002C58.6423 36.6779 58.3646 36.8603 58.3646 37.2252C58.3614 37.3055 58.3784 37.3853 58.414 37.4573C58.4495 37.5294 58.5026 37.5914 58.5682 37.6377C58.7333 37.7487 58.9302 37.8026 59.1288 37.791C59.3486 37.797 59.5658 37.7411 59.7554 37.6297Z" fill="#181F32"/>
<path d="M66.63 34.1843C66.9822 34.3823 67.2724 34.6743 67.4682 35.0277C67.6681 35.42 67.7723 35.854 67.7723 36.2942C67.7723 36.7345 67.6681 37.1685 67.4682 37.5607C67.2724 37.9142 66.9822 38.2062 66.63 38.4042C66.2666 38.607 65.8563 38.7109 65.4402 38.7056C65.1784 38.7187 64.9168 38.675 64.6735 38.5773C64.4302 38.4796 64.211 38.3303 64.0309 38.1398V40.3238H62.6639V33.9543H63.9595V34.4831C64.1416 34.2759 64.3689 34.1133 64.6238 34.0078C64.8787 33.9024 65.1544 33.8569 65.4296 33.8749C65.8499 33.8716 66.2637 33.9782 66.63 34.1843ZM66.0642 37.2382C66.2797 36.9707 66.3971 36.6377 66.3971 36.2942C66.3971 35.9508 66.2797 35.6177 66.0642 35.3503C65.8356 35.1247 65.5273 34.9983 65.2062 34.9983C64.885 34.9983 64.5768 35.1247 64.3482 35.3503C64.1327 35.6177 64.0152 35.9508 64.0152 36.2942C64.0152 36.6377 64.1327 36.9707 64.3482 37.2382C64.5768 37.4637 64.885 37.5902 65.2062 37.5902C65.5273 37.5902 65.8356 37.4637 66.0642 37.2382Z" fill="#181F32"/>
<path d="M68.8113 32.54H70.2127V36.5061L73.1211 32.54H74.4432V38.6213H73.0524V34.6553L70.1439 38.6213H68.8219L68.8113 32.54Z" fill="#181F32"/>
<path d="M75.8498 33.9543H77.2062V35.7814H79.2421V33.9543H80.5985V38.6343H79.2421V36.8866H77.2062V38.6343H75.8577L75.8498 33.9543Z" fill="#181F32"/>
<path d="M48.4257 36.7518L47.9762 37.2039V38.6211H46.723V31.9792H47.9762V35.6651L48.2195 35.3531L49.4199 33.9438H50.9217L49.2269 35.8977L51.0777 38.6317H49.6393L48.4257 36.7518Z" fill="#181F32"/>
</svg>
